<?xml version="1.0" encoding="UTF-8" standalone="no"?>
<!-- Created with Inkscape (http://www.inkscape.org/) -->

<svg
   xmlns:dc="http://purl.org/dc/elements/1.1/"
   xmlns:cc="http://creativecommons.org/ns#"
   xmlns:rdf="http://www.w3.org/1999/02/22-rdf-syntax-ns#"
   xmlns:svg="http://www.w3.org/2000/svg"
   xmlns="http://www.w3.org/2000/svg"
   xmlns:sodipodi="http://sodipodi.sourceforge.net/DTD/sodipodi-0.dtd"
   xmlns:inkscape="http://www.inkscape.org/namespaces/inkscape"
   width="32"
   height="32"
   viewBox="0 0 8.4666665 8.4666669"
   version="1.1"
   _id="svg4677"
   inkscape:version="0.92.3 (2405546, 2018-03-11)"
   sodipodi:docname="plus.svg">
  <defs
     _id="defs4671" />
  <sodipodi:namedview
     _id="base"
     pagecolor="#7e7e7e"
     bordercolor="#666666"
     borderopacity="1.0"
     inkscape:pageopacity="0"
     inkscape:pageshadow="2"
     inkscape:zoom="7.9195959"
     inkscape:cx="31.694979"
     inkscape:cy="14.320921"
     inkscape:document-units="mm"
     inkscape:current-layer="layer1"
     showgrid="false"
     inkscape:window-width="1920"
     inkscape:window-height="1017"
     inkscape:window-x="-4"
     inkscape:window-y="-4"
     inkscape:window-maximized="1"
     units="px" />
  <metadata
     _id="metadata4674">
    <rdf:RDF>
      <cc:Work
         rdf:about="">
        <dc:format>image/svg+xml</dc:format>
        <dc:type
           rdf:resource="http://purl.org/dc/dcmitype/StillImage" />
        <dc:title></dc:title>
      </cc:Work>
    </rdf:RDF>
  </metadata>
  <g
     inkscape:label="Layer 1"
     inkscape:groupmode="layer"
     _id="layer1"
     transform="translate(0,-288.53332)">
    <path
       style="fill:#ffffff;fill-opacity:1;stroke:none;stroke-width:0.99592781"
       d="M 16.099609 0.43359375 A 15.973038 15.531094 0 0 0 0.12695312 15.962891 A 15.973038 15.531094 0 0 0 16.099609 31.494141 A 15.973038 15.531094 0 0 0 32.072266 15.962891 A 15.973038 15.531094 0 0 0 16.099609 0.43359375 z M 13.699219 6.4296875 L 18.498047 6.4296875 L 18.498047 13.564453 L 25.632812 13.564453 L 25.632812 18.363281 L 18.498047 18.363281 L 18.498047 25.498047 L 13.699219 25.498047 L 13.699219 18.363281 L 6.5664062 18.363281 L 6.5664062 13.564453 L 13.699219 13.564453 L 13.699219 6.4296875 z "
       transform="matrix(0.26458333,0,0,0.26458333,0,288.53332)"
       _id="path831" />
  </g>
</svg>
